<svg width="23" height="23" viewBox="0 0 23 23" fill="none" xmlns="http://www.w3.org/2000/svg">
<path d="M9.89281 1.82178L10.9939 0.692095C11.4601 0.21376 12.214 0.21376 12.6752 0.692095L22.317 10.5794C22.7832 11.0577 22.7832 11.8312 22.317 12.3044L12.6752 22.1968C12.209 22.6751 11.4551 22.6751 10.9939 22.1968L9.89281 21.0671C9.42163 20.5837 9.43155 19.795 9.91265 19.3217L15.8892 13.4799H1.6348C0.975153 13.4799 0.444458 12.9354 0.444458 12.2586V10.6303C0.444458 9.95347 0.975153 9.40899 1.6348 9.40899H15.8892L9.91265 3.56719C9.42659 3.09395 9.41667 2.3052 9.89281 1.82178Z" fill="white"/>
</svg>
